<svg xmlns="http://www.w3.org/2000/svg" viewBox="0 0 23.22 23"><defs><style>.cls-1{fill:#1d1d1b;}</style></defs><g id="Lager_2" data-name="Lager 2"><g id="Lager_6" data-name="Lager 6"><path class="cls-1" d="M11,9.09c-.11-1.34-.27-3.81.91-4.72.35-.27.72-.35,1-.71a3.07,3.07,0,0,0,.57-1.26A6.8,6.8,0,0,0,13.68.29l-.94.07c1,1,2.52,2.66,2.33,4.16a9.65,9.65,0,0,1-1.38,3c-.31.56-.64,1.12-1,1.67-.19.3.78.44,1,.18.33-.48.69-.94,1.07-1.39S16.15,6.21,17,6.13a6.38,6.38,0,0,1,1.54.44,12.1,12.1,0,0,0,1.68.31A4.21,4.21,0,0,0,23,6.42L22,6.25A12.37,12.37,0,0,1,21.44,9c-.43.78-1.89.81-2.69.93-1,.15-2.07.27-3.09.51-.42.1-1.2.23-1.39.69s.73.4.9.24a2.15,2.15,0,0,1,1-.52,2.76,2.76,0,0,1,3,1.86,4.66,4.66,0,0,0,3.34,2.85l-.28-.37a4.1,4.1,0,0,1-2.28,1,4,4,0,0,1-2.74-1.09l-2.85-2.43c-.2-.18-1.19-.16-.87.19s.82,1,1.2,1.49a5.14,5.14,0,0,1,1.3,2.44,3.47,3.47,0,0,1-.63,1.42,7.78,7.78,0,0,0-.8,1.67,5,5,0,0,0,.23,3l.75-.23a4.29,4.29,0,0,1-3.32-4.37c.12-1.35.42-2.71.63-4,.05-.32-.95-.4-1,0-.2,1.26-.51,3.12-1.75,3.74-1.49.74-3.62.94-3.87,2.92l.93-.07c-.82-.89-1.72-2.45-1-3.61a11.46,11.46,0,0,1,2.69-2.24l1.2-.93c.38-.28-.6-.4-.77-.33-1.11.45-3,1.45-4.23,1C3.53,14.1,2,12.61.17,13.5l.84.22a3.5,3.5,0,0,1,.12-1.25c.38-1.25,1.79-1.48,2.94-1.59,1.54-.15,3,.45,4.6.44.23,0,.75-.14.38-.39A9.36,9.36,0,0,1,5.83,7.68C5.42,6.81,5.6,5.85,5.15,5A5.79,5.79,0,0,0,3.92,3.33l-.46.34c1.14.09,2.92.05,3.78.86A12.74,12.74,0,0,1,10,9.1c.11.3,1.1.27,1-.08A14.8,14.8,0,0,0,9.47,6.17,7.87,7.87,0,0,0,7.85,4.08c-1.12-.8-3-.78-4.36-.89-.14,0-.72.09-.45.34A5.14,5.14,0,0,1,4.42,5.58c.35,1,.15,1.84.8,2.76a12.18,12.18,0,0,0,3.1,2.89l.38-.39A12.13,12.13,0,0,1,6,10.47a8.23,8.23,0,0,0-3.24.1C1,10.92-.14,11.78,0,13.67c0,.31.65.31.85.21C2,13.3,3.46,14.55,4.5,15a3.1,3.1,0,0,0,1.71.16A16.78,16.78,0,0,0,10.06,14l-.77-.34L7.61,15c-.82.64-2.1,1.32-2.5,2.33-.49,1.27.4,2.73,1.24,3.64.16.17.89.25.93-.08.3-2.26,3.16-1.74,4.37-3.14a7.4,7.4,0,0,0,1.26-3.52l-1,0a20.68,20.68,0,0,0-.64,4.8,4.93,4.93,0,0,0,3.8,4c.14,0,.89.11.75-.23a4.48,4.48,0,0,1,.24-3.8c.39-.77,1.15-1.58.92-2.49a10.38,10.38,0,0,0-2.56-3.81l-.87.19a42.57,42.57,0,0,0,3.56,3,5.1,5.1,0,0,0,6-.39c.24-.18-.14-.35-.28-.37a4.72,4.72,0,0,1-2.14-1.39A7.89,7.89,0,0,1,20,12.24,3.13,3.13,0,0,0,18,10.55a3.74,3.74,0,0,0-3.64.52l.91.23c.24-.58,2-.64,2.54-.72,1-.16,2.08-.26,3.09-.52a2.09,2.09,0,0,0,1.6-1A20.33,20.33,0,0,0,23,6.3c.09-.34-.79-.26-.93-.17-2,1.31-4.28-1.29-6.29-.16A10.5,10.5,0,0,0,12.7,9.22l1,.18q.66-1.05,1.26-2.16a7.36,7.36,0,0,0,1.16-2.86c.05-1.55-1.44-3.18-2.46-4.21-.14-.14-1-.27-.94.07a6.53,6.53,0,0,1-.16,2.11,2.22,2.22,0,0,1-1.06,1.52,2.24,2.24,0,0,0-.76.64C9.86,5.72,9.92,7.63,10,9,10.06,9.39,11.05,9.4,11,9.09Z" transform="translate(0 -0.02)"/><path class="cls-1" d="M14.75,11.21a5.87,5.87,0,0,1,1.67-1.65,9.4,9.4,0,0,1,2.49-.76A11,11,0,0,0,15.67,9a14.14,14.14,0,0,1-2.11.41A4,4,0,0,1,13,8.86c-.48-.67-.2-2.72-.2-2.72a12.67,12.67,0,0,0-1.33,2.31A5.22,5.22,0,0,0,9.86,9c-1,.42-2.43-2.84-2.43-2.84a40,40,0,0,0,1.31,3.8c-.4.42-.37,1.76-.37,1.76-.68,1.11-3.44.86-3.44.86.34.51,3.86.75,3.86.75a2.94,2.94,0,0,0,1.06,1.21c.12.6-1.31,2.74-1.31,2.74,1,0,3.18-2.72,3.18-2.72s.5-.44,1.46,0,1.49,3.18,1.49,3.18a18,18,0,0,0-.21-4.18s-.65-1,.36-1a8.13,8.13,0,0,1,3.39,1.2,5.21,5.21,0,0,0-1.7-1.53C15.52,11.62,14.76,11.29,14.75,11.21Zm-1.84,1.15a2,2,0,0,1-.81.87,1.77,1.77,0,0,1-1.87-.1,2.36,2.36,0,0,1-.85-1.45c0-.31.46-1.58,1.08-1.78a3.43,3.43,0,0,1,.91-.25,1.51,1.51,0,0,1,.92.19,2.47,2.47,0,0,1,.86,1.21A1.88,1.88,0,0,1,12.91,12.36Z" transform="translate(0 -0.02)"/></g></g></svg>